{"asset":{"version":"2.0","generator":"Open Asset Import Library (assimp v5.2.cf7d3637)"},"extensionsUsed":["KHR_materials_volume","KHR_materials_ior","FB_ngon_encoding"],"accessors":[{"bufferView":0,"byteOffset":0,"componentType":5126,"count":612,"type":"VEC3","max":[2.200000047683716,5.656402111053467,3.0999999046325684],"min":[-2.200000047683716,0.0,-3.549999952316284]},{"bufferView":1,"byteOffset":0,"componentType":5126,"count":612,"type":"VEC3","max":[1.0,1.0,1.0],"min":[-1.0,-0.8944271802902222,-1.0]},{"bufferView":2,"byteOffset":0,"componentType":5126,"count":612,"type":"VEC2","max":[1.0,1.0],"min":[0.0,0.0]},{"bufferView":3,"byteOffset":0,"componentType":5125,"count":612,"type":"SCALAR","max":[611],"min":[0]}],"buffers":[{"byteLength":22032,"uri":"cabin.bin"}],"bufferViews":[{"buffer":0,"byteOffset":0,"byteLength":7344,"target":34962},{"buffer":0,"byteOffset":7344,"byteLength":7344,"target":34962},{"buffer":0,"byteOffset":14688,"byteLength":4896,"target":34962},{"buffer":0,"byteOffset":19584,"byteLength":2448,"target":34963}],"materials":[{"name":"DefaultMaterial","pbrMetallicRoughness":{"baseColorFactor":[0.6000000238418579,0.6000000238418579,0.6000000238418579,1.0],"metallicFactor":0.0},"extensions":{"KHR_materials_ior":{"ior":1.0}}},{"name":"Material","pbrMetallicRoughness":{"baseColorTexture":{"index":0},"metallicFactor":0.0,"roughnessFactor":1.0},"extensions":{"KHR_materials_ior":{"ior":1.0}},"normalTexture":{"index":1}}],"meshes":[{"name":"Cube","primitives":[{"extensions":{"FB_ngon_encoding":{}},"mode":4,"material":1,"indices":3,"attributes":{"POSITION":0,"NORMAL":1,"TEXCOORD_0":2}}]}],"nodes":[{"name":"medieval_house_1_001.obj","children":[1]},{"name":"Cube","mesh":0}],"scenes":[{"nodes":[0]}],"scene":0,"images":[{"uri":"textures/cabin_d.jpg"},{"uri":"textures/cabin_n.jpg"}],"textures":[{"source":0},{"source":1}]}