{"asset":{"version":"2.0","generator":"Open Asset Import Library (assimp v5.2.cf7d3637)"},"extensionsUsed":["KHR_materials_volume","KHR_materials_ior","FB_ngon_encoding"],"accessors":[{"bufferView":0,"byteOffset":0,"componentType":5126,"count":804,"type":"VEC3","max":[5.733799934387207,0.6736577153205872,0.11535000056028366],"min":[-0.03279107064008713,-0.6767557263374329,-0.16768600046634674]},{"bufferView":1,"byteOffset":0,"componentType":5126,"count":804,"type":"VEC3","max":[1.0,1.0,1.0],"min":[-1.0,-0.9999998807907104,-1.0]},{"bufferView":2,"byteOffset":0,"componentType":5126,"count":804,"type":"VEC2","max":[1.7995799779891968,2.422098159790039],"min":[-1.1607120037078857,0.0453798770904541]},{"bufferView":3,"byteOffset":0,"componentType":5125,"count":804,"type":"SCALAR","max":[803],"min":[0]},{"bufferView":4,"byteOffset":0,"componentType":5126,"count":162,"type":"VEC3","max":[1.1190799474716187,0.6007751226425171,1.4680659770965576],"min":[-0.8899250030517578,-0.03860168904066086,-1.3790160417556763]},{"bufferView":5,"byteOffset":0,"componentType":5126,"count":162,"type":"VEC3","max":[0.6370319128036499,0.955034613609314,0.5546877980232239],"min":[-0.6771976351737976,0.5069270730018616,-0.6402585506439209]},{"bufferView":6,"byteOffset":0,"componentType":5126,"count":162,"type":"VEC2","max":[2.0,2.0],"min":[-1.0,-1.0]},{"bufferView":7,"byteOffset":0,"componentType":5125,"count":162,"type":"SCALAR","max":[161],"min":[0]},{"bufferView":8,"byteOffset":0,"componentType":5126,"count":21618,"type":"VEC3","max":[22.27301025390625,3.085402011871338,16.88340950012207],"min":[-22.04315948486328,0.00013765999756287783,-16.665849685668945]},{"bufferView":9,"byteOffset":0,"componentType":5126,"count":21618,"type":"VEC3","max":[1.0,1.0,1.0],"min":[-1.0,-1.0,-1.0]},{"bufferView":10,"byteOffset":0,"componentType":5126,"count":21618,"type":"VEC2","max":[2.5495429039001465,3.047574996948242],"min":[-1.4073330163955688,-0.5805330276489258]},{"bufferView":11,"byteOffset":0,"componentType":5125,"count":21618,"type":"SCALAR","max":[21617],"min":[0]}],"buffers":[{"byteLength":813024,"uri":"barn.bin"}],"bufferViews":[{"buffer":0,"byteOffset":0,"byteLength":9648,"target":34962},{"buffer":0,"byteOffset":9648,"byteLength":9648,"target":34962},{"buffer":0,"byteOffset":19296,"byteLength":6432,"target":34962},{"buffer":0,"byteOffset":25728,"byteLength":3216,"target":34963},{"buffer":0,"byteOffset":28944,"byteLength":1944,"target":34962},{"buffer":0,"byteOffset":30888,"byteLength":1944,"target":34962},{"buffer":0,"byteOffset":32832,"byteLength":1296,"target":34962},{"buffer":0,"byteOffset":34128,"byteLength":648,"target":34963},{"buffer":0,"byteOffset":34776,"byteLength":259416,"target":34962},{"buffer":0,"byteOffset":294192,"byteLength":259416,"target":34962},{"buffer":0,"byteOffset":553608,"byteLength":172944,"target":34962},{"buffer":0,"byteOffset":726552,"byteLength":86472,"target":34963}],"materials":[{"name":"madeira","pbrMetallicRoughness":{"baseColorTexture":{"index":0},"metallicFactor":0.0,"roughnessFactor":1.0},"extensions":{"KHR_materials_ior":{"ior":1.0}},"normalTexture":{"index":1},"occlusionTexture":{"index":2}},{"name":"straw","pbrMetallicRoughness":{"baseColorTexture":{"index":3},"metallicFactor":0.0,"roughnessFactor":1.0},"extensions":{"KHR_materials_ior":{"ior":1.0}},"normalTexture":{"index":4},"occlusionTexture":{"index":5}}],"meshes":[{"name":"Cube_013-mesh","primitives":[{"mode":4,"material":0,"indices":3,"attributes":{"POSITION":0,"NORMAL":1,"TEXCOORD_0":2}}]},{"name":"Plane-mesh","primitives":[{"mode":4,"material":1,"indices":7,"attributes":{"POSITION":4,"NORMAL":5,"TEXCOORD_0":6}}]},{"name":"Cube_001-mesh","primitives":[{"mode":4,"material":0,"indices":11,"attributes":{"POSITION":8,"NORMAL":9,"TEXCOORD_0":10}}]}],"nodes":[{"name":"Scene","matrix":[1.0,0.0,0.0,0.0,0.0,0.0,-1.0,0.0,0.0,1.0,0.0,0.0,0.0,0.0,0.0,1.0],"children":[1]},{"name":"walls","matrix":[0.1475784033536911,0.0,0.0,0.0,0.0,-5.91579016884225e-08,1.353376030921936,0.0,0.0,-0.1475784033536911,-6.450859846296453e-09,0.0,0.0,0.0,0.0,1.0],"children":[2,3],"mesh":2},{"name":"door","matrix":[0.9999998211860657,0.0,0.0,0.0,0.0,0.9999998807907104,0.0,0.0,0.0,4.440889980918258e-16,0.9999998211860657,0.0,-16.05167007446289,0.7879297733306885,-13.400810241699219,1.0],"mesh":0},{"name":"straw","matrix":[6.776060104370117,0.0,0.0,0.0,0.0,0.7388927936553955,-2.842169926600864e-14,0.0,0.0,3.552710078910475e-15,6.776060104370117,0.0,7.3244099617004395,0.027570340782403946,-4.049228191375732,1.0],"mesh":1}],"scenes":[{"nodes":[0]}],"scene":0,"images":[{"uri":"textures/madeira_diffuse.png"},{"uri":"textures/madeira_normal.png"},{"uri":"textures/madeira_AO.png"},{"uri":"textures/straw_diffuse.png"},{"uri":"textures/straw_normal.png"},{"uri":"textures/straw_AO.png"}],"textures":[{"source":0},{"source":1},{"source":2},{"source":3},{"source":4},{"source":5}]}