{"asset":{"version":"2.0","generator":"Open Asset Import Library (assimp v5.2.cf7d3637)"},"extensionsUsed":["KHR_materials_volume","FB_ngon_encoding"],"accessors":[{"bufferView":0,"byteOffset":0,"componentType":5126,"count":4842,"type":"VEC3","max":[0.17098331451416016,1.1544029712677002,1.1065616607666016],"min":[-0.09051787853240967,-0.1748872995376587,-0.9257508516311646]},{"bufferView":1,"byteOffset":0,"componentType":5126,"count":4842,"type":"VEC3","max":[0.9999849796295166,0.9997299909591675,0.9999986886978149],"min":[-0.9999874830245972,-0.9997183084487915,-0.9999994039535522]},{"bufferView":2,"byteOffset":0,"componentType":5126,"count":4842,"type":"VEC2","max":[0.9978097677230835,0.9985076189041138],"min":[0.0016341416630893946,0.0014920234680175781]},{"bufferView":3,"byteOffset":0,"componentType":5125,"count":4842,"type":"SCALAR","max":[4841],"min":[0]}],"buffers":[{"byteLength":174312,"uri":"fence_varA_A.bin"}],"bufferViews":[{"buffer":0,"byteOffset":0,"byteLength":58104,"target":34962},{"buffer":0,"byteOffset":58104,"byteLength":58104,"target":34962},{"buffer":0,"byteOffset":116208,"byteLength":38736,"target":34962},{"buffer":0,"byteOffset":154944,"byteLength":19368,"target":34963}],"images":[{"uri":"textures/WoodenFence_BaseColor.jpg"},{"uri":"textures/WoodenFence_Normal.jpg"}],"materials":[{"name":"WoodenFence","pbrMetallicRoughness":{"baseColorTexture":{"index":0},"baseColorFactor":[0.800000011920929,0.800000011920929,0.800000011920929,1.0],"metallicFactor":0.0,"roughnessFactor":0.85},"normalTexture":{"index":1}}],"meshes":[{"name":"Cylinder.046","primitives":[{"extensions":{"FB_ngon_encoding":{}},"mode":4,"material":0,"indices":3,"attributes":{"POSITION":0,"NORMAL":1,"TEXCOORD_0":2}}]}],"nodes":[{"name":"RootNode","children":[1]},{"name":"WoodenFence_VarA_A_LOD1","mesh":0,"extras":{"UserProperties":"","IsNull":false,"DefaultAttributeIndex":0,"InheritType":1}}],"samplers":[{},{}],"scenes":[{"nodes":[0]}],"textures":[{"source":0,"sampler":0},{"source":1,"sampler":1}],"scene":0}