{"asset":{"version":"2.0","generator":"Open Asset Import Library (assimp v5.2.cf7d3637)"},"extensionsUsed":["KHR_materials_volume","FB_ngon_encoding"],"accessors":[{"bufferView":0,"byteOffset":0,"componentType":5126,"count":1440,"type":"VEC3","max":[0.09683074802160263,0.09451884776353836,0.008671402931213379],"min":[-0.07970032840967178,-0.06886439025402069,-1.0759003162384033]},{"bufferView":1,"byteOffset":0,"componentType":5126,"count":1440,"type":"VEC3","max":[0.9999731779098511,0.9999396800994873,0.9959896206855774],"min":[-0.9999790191650391,-0.9999998807907104,-0.9995057582855225]},{"bufferView":2,"byteOffset":0,"componentType":5126,"count":1440,"type":"VEC2","max":[0.9962756037712097,0.9984974265098572],"min":[0.23854728043079376,0.4659305810928345]},{"bufferView":3,"byteOffset":0,"componentType":5125,"count":1440,"type":"SCALAR","max":[1439],"min":[0]}],"buffers":[{"byteLength":51840,"uri":"fence_post_A.bin"}],"bufferViews":[{"buffer":0,"byteOffset":0,"byteLength":17280,"target":34962},{"buffer":0,"byteOffset":17280,"byteLength":17280,"target":34962},{"buffer":0,"byteOffset":34560,"byteLength":11520,"target":34962},{"buffer":0,"byteOffset":46080,"byteLength":5760,"target":34963}],"images":[{"uri":"textures/WoodenFence_BaseColor.jpg"},{"uri":"textures/WoodenFence_Normal.jpg"}],"materials":[{"name":"WoodenFence","pbrMetallicRoughness":{"baseColorTexture":{"index":0},"baseColorFactor":[0.800000011920929,0.800000011920929,0.800000011920929,1.0],"metallicFactor":0.0,"roughnessFactor":0.85},"normalTexture":{"index":1}}],"meshes":[{"name":"Cylinder.014","primitives":[{"extensions":{"FB_ngon_encoding":{}},"mode":4,"material":0,"indices":3,"attributes":{"POSITION":0,"NORMAL":1,"TEXCOORD_0":2}}]}],"nodes":[{"name":"RootNode","children":[1],"rotation":[0.7071068,0,0,0.7071068]},{"name":"WoodenFence_Post_A_LOD1","mesh":0,"extras":{"UserProperties":"","IsNull":false,"DefaultAttributeIndex":0,"InheritType":1}}],"samplers":[{},{}],"scenes":[{"nodes":[0]}],"textures":[{"source":0,"sampler":0},{"source":1,"sampler":1}],"scene":0}